<svg width="1187.5" height="1187.5" viewBox="0 0 950 950" xmlns="http://www.w3.org/2000/svg"><path fill="#0f58d6" d="m0 0h950v950h-950v-950m75.36 374.43c-3.07 1.09-5.13 4.32-4.88 7.57.06 28.31-.02 56.63.04 84.93.001 3.85 3.58 7.1 7.36 7.05 46.05.06 92.09-.02 138.13.04 2.87-.29 5.59 2.04 5.45 4.99.08 21.34.04 42.68.02 64.02.35 3.06-2.36 5.87-5.45 5.46-29.99 0-59.99.03-89.98-.001-3.01.23-5.2-2.62-5.02-5.45-.11-12.36.04-24.73-.05-37.09.12-4.12-3.9-7.6-7.94-7.2-20.02.03-40.03-.001-60.04.001-4.45-.33-8.13 3.86-7.75 8.2.001 19.69-.03 39.38.03 59.07-.16 4.13 3.43 7.91 7.61 7.71 78.7.05 157.4 0 236.1.03 4.38.43 8.56-3.32 8.24-7.8.05-36.31-.001-72.63.03-108.95.48-4.63-3.77-8.61-8.31-8.26-45.95-.02-91.91.04-137.86-.03-2.57.08-4.87-2.16-4.81-4.72-.06-13.31-.05-26.61 0-39.91-.09-2.59 2.19-4.89 4.77-4.81 13.34-.07 26.68-.001 40.02-.03 2.3-.2 4.61 1.46 5.06 3.74.5 5.11-.34 10.28.37 15.37.84 3.84 4.74 6.12 8.53 5.86 19.64.03 39.28.09 58.92-.03 3.95.2 8.04-2.92 8.01-7.05.07-12.07.06-24.14.001-36.2-.001-4.05-4.02-7.27-7.95-6.95-61.66.001-123.33.02-185 0-1.25-.05-2.47.1-3.66.44m259.4 7.53c-.02 19.68-.02 39.37 0 59.06-.33 4.2 3.15 7.97 7.35 8.03 2.68.001 5.41 2.04 5.12 4.94-.04 13.66.17 27.34-.1 41-.75 4.09-5.62 3.41-8.54 4.67-2.67 1.36-3.98 4.47-3.85 7.37.03 19.65-.02 39.3.03 58.95-.31 4.43 3.8 8.17 8.15 7.77 24.05 0 48.1-.001 72.15.001 4.21.32 8.33-3.39 7.93-7.71-.02-20.35.04-40.69-.03-61.04.12-1.43-.31-3.19.92-4.25 2.78 1.57 4.77 4.13 7.05 6.31 21.47 21.51 43.22 42.74 64.72 64.21 1.61 1.69 3.89 2.63 6.24 2.48 30.03-.05 60.07.04 90.1-.04 4-.001 7.52-3.68 7.24-7.7 0-19.99.04-39.99-.02-59.99.07-3.86-3.41-7.32-7.26-7.25-21.64-.08-43.28 0-64.91-.04-2.33.08-4.57-.9-6.09-2.64-15.92-15.62-31.72-31.35-47.53-47.07 5.92-6.58 12.65-12.39 18.74-18.82 2.59-2.37 4.88-6.09 8.83-5.95 21.67-.08 43.34.09 65.01-.07 3.97.18 8.04-2.94 7.97-7.1.03-12.04.05-24.09-.001-36.13.06-4.04-3.99-7.27-7.89-6.97-21.37.001-42.75.02-64.12 0-2.43-.2-4.76.79-6.39 2.57-13.63 13.74-27.6 27.13-41.18 40.92-10.46 9.67-19.94 20.37-30.55 29.86-.57-1.38-.97-2.83-.86-4.33.05-20.35 0-40.71.03-61.06.52-4.39-3.62-8.39-7.97-7.95-24.38.02-48.75-.05-73.12.03-4.12-.03-7.47 3.89-7.16 7.93m306.62-7.42c-2.95 1.16-4.78 4.27-4.62 7.4-.03 19.69.001 39.38-.02 59.07-.35 4.16 3.12 7.94 7.28 8.02 2.72.001 5.52 2.03 5.22 5 .06 12.64-.05 25.29.04 37.94-.05 1.73.14 3.74-1.19 5.09-2.14 2.28-5.75 1.23-8.17 3-2.28 1.47-3.31 4.28-3.18 6.91.04 19.67-.03 39.34.03 59.01-.32 4.43 3.8 8.16 8.14 7.77 24.04 0 48.07-.001 72.1.001 4.23.31 8.41-3.36 7.99-7.73-.001-20.03.03-40.06-.02-60.09.2-3.83-3.33-7.03-7.02-7.18-2.65-.08-5.49-1.82-5.43-4.75-.08-4.98-.06-9.97-.001-14.95-.21-2.93 2.55-5.38 5.43-5.04 9.06-.02 18.12-.08 27.18.02 3.23-.05 4.95 3.13 4.98 6.01.29 3.86 4.08 6.67 7.85 6.44 20 .001 40.01.03 60.02 0 4.06.23 7.91-3.29 7.75-7.4.04-11.72.001-23.44.02-35.16.23-4.25-3.68-7.76-7.81-7.65-19.66-.08-39.32 0-58.98-.04-2.8-.07-5.93.74-7.6 3.16-1.5 2.01-1.17 4.67-2.05 6.93-1 1.91-3.28 2.6-5.31 2.44-8.97-.06-17.94.03-26.91-.04-2.95.001-4.97-3.01-4.6-5.78.05-12.98-.05-25.96.04-38.94-.11-2.88 2.67-5.07 5.43-4.76 25.7 0 51.39 0 77.09 0 2.07-.27 3.88 1.03 4.87 2.78 1.03 5.56-.45 11.35.79 16.89.98 3.6 4.84 5.47 8.37 5.3 27.95.03 55.91.08 83.87-.02 4.1.31 8.26-3 8.28-7.23.03-11.99.05-23.99-.001-35.97-.09-4.17-4.12-7.45-8.2-7.01-81.02.02-162.03.001-243.05 0-2.86.11-5.84-.39-8.59.55"/><g fill="#fff"><path d="m75.36 374.43c1.19-.34 2.41-.49 3.66-.44 61.67.02 123.34.001 185 0 3.93-.32 7.94 2.9 7.95 6.95.05 12.06.06 24.13-.001 36.2.03 4.13-4.06 7.25-8.01 7.05-19.64.12-39.28.06-58.92.03-3.79.26-7.69-2.02-8.53-5.86-.71-5.09.13-10.26-.37-15.37-.45-2.28-2.76-3.94-5.06-3.74-13.34.02-26.68-.04-40.02.03-2.58-.08-4.86 2.22-4.77 4.81-.05 13.3-.06 26.6 0 39.91-.06 2.56 2.24 4.8 4.81 4.72 45.95.07 91.91.001 137.86.03 4.54-.35 8.79 3.63 8.31 8.26-.04 36.32.02 72.64-.03 108.95.32 4.48-3.86 8.23-8.24 7.8-78.7-.03-157.4.02-236.1-.03-4.18.2-7.77-3.58-7.61-7.71-.06-19.69-.02-39.38-.03-59.07-.38-4.34 3.3-8.53 7.75-8.2 20.01-.02 40.02.02 60.04-.001 4.04-.4 8.06 3.08 7.94 7.2.09 12.36-.06 24.73.05 37.09-.18 2.83 2.01 5.68 5.02 5.45 29.99.04 59.99.001 89.98.001 3.09.41 5.8-2.4 5.45-5.46.02-21.34.06-42.68-.02-64.02.14-2.95-2.58-5.28-5.45-4.99-46.04-.06-92.08.02-138.13-.04-3.78.05-7.35-3.2-7.36-7.05-.06-28.3.02-56.62-.04-84.93-.25-3.25 1.81-6.48 4.88-7.57"/><path d="m334.76 381.96c-.31-4.04 3.04-7.96 7.16-7.93 24.37-.08 48.74-.001 73.12-.03 4.35-.44 8.49 3.56 7.97 7.95-.03 20.35.02 40.71-.03 61.06-.11 1.5.29 2.95.86 4.33 10.61-9.49 20.09-20.19 30.55-29.86 13.58-13.79 27.55-27.18 41.18-40.92 1.63-1.78 3.96-2.77 6.39-2.57 21.37.02 42.75.001 64.12 0 3.9-.3 7.95 2.93 7.89 6.97.06 12.04.04 24.09.001 36.13.07 4.16-4 7.28-7.97 7.1-21.67.16-43.34-.001-65.01.07-3.95-.14-6.24 3.58-8.83 5.95-6.09 6.43-12.82 12.24-18.74 18.82 15.81 15.72 31.61 31.45 47.53 47.07 1.52 1.74 3.76 2.72 6.09 2.64 21.63.04 43.27-.04 64.91.04 3.85-.07 7.33 3.39 7.26 7.25.06 20 .02 40 .02 59.99.28 4.02-3.24 7.69-7.24 7.7-30.03.08-60.07-.001-90.1.04-2.35.15-4.63-.79-6.24-2.48-21.5-21.47-43.25-42.7-64.72-64.21-2.28-2.18-4.27-4.74-7.05-6.31-1.23 1.06-.8 2.82-.92 4.25.07 20.35.001 40.69.03 61.04.4 4.32-3.72 8.03-7.93 7.71-24.05-.02-48.1-.001-72.15-.001-4.35.4-8.46-3.34-8.15-7.77-.05-19.65 0-39.3-.03-58.95-.13-2.9 1.18-6.01 3.85-7.37 2.92-1.26 7.79-.58 8.54-4.67.27-13.66.06-27.34.1-41 .29-2.9-2.44-4.93-5.12-4.94-4.2-.06-7.68-3.83-7.35-8.03-.02-19.69-.02-39.38 0-59.06"/><path d="m641.38 374.54c2.75-.94 5.73-.44 8.59-.55 81.02.001 162.03.02 243.05 0 4.08-.44 8.11 2.84 8.2 7.01.06 11.98.04 23.98.001 35.97-.02 4.23-4.18 7.54-8.28 7.23-27.96.1-55.92.05-83.87.02-3.53.17-7.39-1.7-8.37-5.3-1.24-5.54.24-11.33-.79-16.89-.99-1.75-2.8-3.05-4.87-2.78-25.7 0-51.39 0-77.09 0-2.76-.31-5.54 1.88-5.43 4.76-.09 12.98.001 25.96-.04 38.94-.37 2.77 1.65 5.79 4.6 5.78 8.97.07 17.94-.02 26.91.04 2.03.16 4.31-.53 5.31-2.44.88-2.26.55-4.92 2.05-6.93 1.67-2.42 4.8-3.23 7.6-3.16 19.66.04 39.32-.04 58.98.04 4.13-.11 8.04 3.4 7.81 7.65-.001 11.72.02 23.44-.02 35.16.16 4.11-3.69 7.63-7.75 7.4-20.01.03-40.02.001-60.02 0-3.77.23-7.56-2.58-7.85-6.44-.03-2.88-1.75-6.06-4.98-6.01-9.06-.1-18.12-.04-27.18-.02-2.88-.34-5.64 2.11-5.43 5.04-.05 4.98-.07 9.97.001 14.95-.06 2.93 2.78 4.67 5.43 4.75 3.69.15 7.22 3.35 7.02 7.18.05 20.03.001 40.06.02 60.09.42 4.37-3.76 8.04-7.99 7.73-24.03-.02-48.06-.001-72.1-.001-4.34.39-8.46-3.34-8.14-7.77-.06-19.67.001-39.34-.03-59.01-.13-2.63.9-5.44 3.18-6.91 2.42-1.77 6.03-.72 8.17-3 1.33-1.35 1.14-3.36 1.19-5.09-.09-12.65.02-25.3-.04-37.94.3-2.97-2.5-4.99-5.22-5-4.16-.08-7.63-3.86-7.28-8.02.03-19.69-.001-39.38.02-59.07-.16-3.13 1.67-6.24 4.62-7.4"/></g></svg>